<svg xmlns="http://www.w3.org/2000/svg" width="91" height="17" fill="none"><g clip-path="url(#a)"><path fill="#83B3D3" d="m9 0 2.1 6.5H18l-5.6 4 2.2 6.5L9 13l-5.6 4 2.2-6.5-5.6-4h6.9L9 0Z"/></g><g clip-path="url(#b)"><path fill="#83B3D3" d="m34 0 2.1 6.5H43l-5.6 4 2.2 6.5-5.6-4-5.6 4 2.2-6.5-5.6-4h6.9L34 0Z"/></g><g clip-path="url(#c)"><path fill="#83B3D3" d="m59 0 2.1 6.5H68l-5.6 4 2.2 6.5-5.6-4-5.6 4 2.2-6.5-5.6-4h6.9L59 0Z"/></g><g clip-path="url(#d)"><path fill="#83B3D3" d="m82 0 2.1 6.5H91l-5.6 4 2.2 6.5-5.6-4-5.6 4 2.2-6.5-5.6-4h6.9L82 0Z"/></g><defs><clipPath id="a"><path fill="#fff" d="M0 0h18v17H0z"/></clipPath><clipPath id="b"><path fill="#fff" d="M25 0h18v17H25z"/></clipPath><clipPath id="c"><path fill="#fff" d="M50 0h18v17H50z"/></clipPath><clipPath id="d"><path fill="#fff" d="M73 0h18v17H73z"/></clipPath></defs></svg>